<?xml version="1.0" encoding="utf-8"?>
<!-- Generator: Adobe Illustrator 23.1.1, SVG Export Plug-In . SVG Version: 6.00 Build 0)  -->
<svg version="1.1" id="Capa_1" xmlns="http://www.w3.org/2000/svg" xmlns:xlink="http://www.w3.org/1999/xlink" x="0px" y="0px"
	 viewBox="0 0 40 40" style="enable-background:new 0 0 40 40;" xml:space="preserve">
<style type="text/css">
	.st0{fill:#2A488B;}
</style>
<path class="st0" d="M19.92,0.64C9.18,0.64,0.47,9.35,0.47,20.09c0,10.74,8.71,19.45,19.45,19.45c0.06,0,0.11,0,0.17,0V25.97H15.4
	v-5.42h4.68v-4c0-4.64,2.83-7.17,6.97-7.17c1.98,0,3.69,0.15,4.19,0.21v4.85l-2.87,0c-2.25,0-2.69,1.07-2.69,2.64v3.46h5.37
	l-0.7,5.42h-4.67v12.7c7.93-2.46,13.68-9.85,13.68-18.58C39.37,9.35,30.66,0.64,19.92,0.64z"/>
</svg>
